<svg xmlns="http://www.w3.org/2000/svg" xmlns:xlink="http://www.w3.org/1999/xlink" viewBox="0 0 605.53 527.65"><defs><style>.cls-1,.cls-10,.cls-8{fill:none;}.cls-2{fill:url(#linear-gradient);}.cls-3{clip-path:url(#clip-path);}.cls-11,.cls-4{fill:#0f1048;}.cls-5{clip-path:url(#clip-path-2);}.cls-6{fill:#6c6cff;}.cls-7{clip-path:url(#clip-path-3);}.cls-8{stroke:#fff;}.cls-10,.cls-8{stroke-miterlimit:10;stroke-width:3px;}.cls-30,.cls-9{fill:#fff;}.cls-10{stroke:#6c6cff;}.cls-11{opacity:0.7;}.cls-12{fill:url(#linear-gradient-2);}.cls-13{fill:url(#linear-gradient-3);}.cls-14{fill:#fdbc9d;}.cls-15{fill:url(#linear-gradient-4);}.cls-16{fill:url(#linear-gradient-5);}.cls-17{fill:url(#linear-gradient-6);}.cls-18{fill:url(#linear-gradient-7);}.cls-19{fill:#e5f4ff;}.cls-20{fill:url(#linear-gradient-8);}.cls-21{fill:url(#linear-gradient-9);}.cls-22{fill:url(#linear-gradient-10);}.cls-23{fill:url(#linear-gradient-11);}.cls-24{fill:url(#linear-gradient-12);}.cls-25{fill:url(#linear-gradient-13);}.cls-26{fill:url(#linear-gradient-14);}.cls-27{fill:url(#linear-gradient-15);}.cls-28{fill:url(#linear-gradient-16);}.cls-29{fill:#d86964;opacity:0.5;}.cls-30{opacity:0.3;}</style><linearGradient id="linear-gradient" x1="105.53" y1="399.65" x2="497.53" y2="399.65" gradientUnits="userSpaceOnUse"><stop offset="0.31" stop-color="#6c6cff"/><stop offset="0.57" stop-color="#19194f"/><stop offset="0.86" stop-color="#6c6cff"/></linearGradient><clipPath id="clip-path"><ellipse class="cls-1" cx="301.53" cy="417.65" rx="196" ry="34.5"/></clipPath><clipPath id="clip-path-2"><path class="cls-1" d="M497.53,399.65c0-19.06-98.75-139.5-207-139.5s-185,120.44-185,139.5,87.76,34.5,196,34.5S497.53,418.7,497.53,399.65Z"/></clipPath><clipPath id="clip-path-3"><path class="cls-1" d="M250,503.65a117.38,117.38,0,0,1,0-19.94c1-9.06-1-15.06-3-21.06s-5-13-1-21,5-8,4-12-6-11-4-17,7-9.29,9-14,0-15.59,0-15.59l73-2.41,11,4s0,15,2,21,9,14,9,21-7,20-6,25,2,17,2,29-1,21-1,21-25,16-51,16A77.58,77.58,0,0,1,250,503.65Z"/></clipPath><linearGradient id="linear-gradient-2" x1="266.73" y1="149.81" x2="319.42" y2="149.81" gradientUnits="userSpaceOnUse"><stop offset="0" stop-color="#fdbc9d"/><stop offset="1" stop-color="#f49a89"/></linearGradient><linearGradient id="linear-gradient-3" x1="324.49" y1="122.9" x2="337.39" y2="166.77" xlink:href="#linear-gradient-2"/><linearGradient id="linear-gradient-4" x1="299.62" y1="273.57" x2="321.92" y2="203.63" xlink:href="#linear-gradient-2"/><linearGradient id="linear-gradient-5" x1="392.67" y1="126.11" x2="360.1" y2="181.57" xlink:href="#linear-gradient-2"/><linearGradient id="linear-gradient-6" x1="244.63" y1="170.49" x2="293.08" y2="170.49" xlink:href="#linear-gradient-2"/><linearGradient id="linear-gradient-7" x1="302.38" y1="391.51" x2="303.54" y2="452.28" gradientUnits="userSpaceOnUse"><stop offset="0" stop-color="#6c6cff" stop-opacity="0"/><stop offset="1" stop-color="#6c6cff"/></linearGradient><linearGradient id="linear-gradient-8" x1="477.35" y1="213.01" x2="498.67" y2="176.3" gradientUnits="userSpaceOnUse"><stop offset="0" stop-color="#e5f4ff"/><stop offset="1" stop-color="#fff" stop-opacity="0"/></linearGradient><linearGradient id="linear-gradient-9" x1="527.76" y1="196.19" x2="576.87" y2="148.85" xlink:href="#linear-gradient-8"/><linearGradient id="linear-gradient-10" x1="575.1" y1="211.25" x2="632.61" y2="171.43" gradientUnits="userSpaceOnUse"><stop offset="0" stop-color="#e4f3fe"/><stop offset="1" stop-color="#fff" stop-opacity="0"/></linearGradient><linearGradient id="linear-gradient-11" x1="121.93" y1="300.89" x2="134.17" y2="279.81" xlink:href="#linear-gradient-8"/><linearGradient id="linear-gradient-12" x1="150.88" y1="291.23" x2="179.08" y2="264.05" xlink:href="#linear-gradient-8"/><linearGradient id="linear-gradient-13" x1="178.06" y1="299.88" x2="211.08" y2="277.01" xlink:href="#linear-gradient-10"/><linearGradient id="linear-gradient-14" x1="41.75" y1="95.51" x2="74.94" y2="38.35" xlink:href="#linear-gradient-8"/><linearGradient id="linear-gradient-15" x1="120.24" y1="69.32" x2="196.7" y2="-4.39" xlink:href="#linear-gradient-8"/><linearGradient id="linear-gradient-16" x1="193.94" y1="92.77" x2="283.49" y2="30.77" xlink:href="#linear-gradient-10"/></defs><g id="Layer_2" data-name="Layer 2"><g id="Layer_2-2" data-name="Layer 2"><ellipse class="cls-2" cx="301.53" cy="399.65" rx="196" ry="34.5"/><g class="cls-3"><ellipse class="cls-4" cx="301.53" cy="399.65" rx="196" ry="34.5"/></g><g class="cls-5"><path class="cls-6" d="M250,513.65s-1-20.88,0-29.94-1-15.06-3-21.06-5-13-1-21,5-8,4-12-6-11-4-17,7-9.29,9-14,0-15.59,0-15.59l73-2.41,11,4s0,15,2,21,9,14,9,21-7,20-6,25,2,17,2,29-1,31-1,31-25,16-51,16A77.58,77.58,0,0,1,250,513.65Z"/><g class="cls-7"><path class="cls-8" d="M280,396.65s-18,13-15,23,11,17,5,24-7,19-3,32,9,32,9,32"/><path class="cls-8" d="M314,399.65s6,17,3,29-12,19-7,32,6.36,22.93,3.18,36"/><path class="cls-8" d="M347,415.65s-33,11-103-9"/><path class="cls-8" d="M350.52,448.13s-6.49-.48-17.49,1.52-38.09,4-55.54,0-41.46-18-41.46-18"/><path class="cls-8" d="M350.52,479.84S290,494.58,245,471.65"/></g></g><path class="cls-9" d="M188,412.93l8.62-2.05a.39.39,0,0,0,0-.76L188,408.06a.39.39,0,0,1-.29-.29l-2.06-8.62a.39.39,0,0,0-.76,0l-2.06,8.62a.41.41,0,0,1-.29.29l-8.62,2.06a.39.39,0,0,0,0,.76l8.62,2.05a.41.41,0,0,1,.29.29l2.06,8.63a.39.39,0,0,0,.76,0l2.06-8.63A.39.39,0,0,1,188,412.93Z"/><path class="cls-9" d="M220,400.69l5.23-1.25a.24.24,0,0,0,0-.46L220,397.73a.24.24,0,0,1-.17-.17l-1.25-5.23a.24.24,0,0,0-.46,0l-1.25,5.23a.24.24,0,0,1-.17.17L211.51,399a.23.23,0,0,0,0,.46l5.23,1.25a.24.24,0,0,1,.17.17l1.25,5.23a.23.23,0,0,0,.46,0l1.25-5.23A.24.24,0,0,1,220,400.69Z"/><path class="cls-9" d="M390.75,413.47l9.06-2.17a.41.41,0,0,0,0-.79l-9.06-2.17a.41.41,0,0,1-.31-.3L388.28,399a.41.41,0,0,0-.8,0L385.32,408a.4.4,0,0,1-.3.3L376,410.51a.41.41,0,0,0,0,.79l9.07,2.17a.4.4,0,0,1,.3.3l2.16,9.06a.41.41,0,0,0,.8,0l2.16-9.06A.41.41,0,0,1,390.75,413.47Z"/><path class="cls-4" d="M260.53,343.65s-5-11.65-1.51-14.58,9.26-9.28,31.89-9.1,40,2.92,43.82,4.55,12.8,4.63,5.8,13.13-44,9.5-45,9.5S260.53,343.65,260.53,343.65Z"/><ellipse class="cls-10" cx="300.53" cy="331.65" rx="42.5" ry="12"/><path class="cls-11" d="M261.53,390.15a66,66,0,0,0,26,12c15,3,54,4,54,4l-3-21-45,4Z"/><path class="cls-12" d="M319.42,181.2s-4.5-30.17-5.91-32.54S294.77,124,292.8,122,278,109.22,278,109.22s-6.9-1-9.86,2-1,11.83,3,16.76S281,139.79,281,139.79s6.58,15.77,9.21,16.76c0,0,4.59,26.62,9.52,32.53S319.42,181.2,319.42,181.2Z"/><path class="cls-13" d="M347.57,180.38S349,150.63,349,145.7s-15.77-33.52-16.76-35.49S316,91.6,315.73,90.06s-6-1.42-9.52,0-4.53,6.34-2.56,13.25,12.08,21.35,12.08,21.35,5.66,22,9.61,24c0,0-6.11,22.58-1.58,32.49C323.76,181.15,334.31,186.47,347.57,180.38Z"/><path class="cls-14" d="M333.62,365.84c-.18-14-.3-28.83-.23-40,.12-17.63,4-34.87,10.93-49,10.68-21.64-90.21-9.38-85.79,8.33,4,16,11.44,18.07,12.1,29.29.37,6.1-.45,29.51-1.37,51.77C268.3,389.3,333.91,388.91,333.62,365.84Z"/><path class="cls-15" d="M344.32,278.92s15.53-33.64,20.46-48.43,8.87-26.62,5.91-33.52-16.11-17.33-32.21-18-60.47,17.05-65.4,20-3,19.72-1,20.71c0,0-13,20.65-13.81,50.28-.76,26.22,2.24,27.22,24.65,35.06C304.35,312.49,331.75,304.67,344.32,278.92Z"/><path class="cls-16" d="M371.71,202.78S387,163.94,388,161s8.87-48.31,9.86-53.24-1-8.87-4.93-9.86-8.88,1-12.82,8.88-6.9,16.76-5.92,20.7c0,0-9.36,20.21-9.36,24.16,0,0-12.82,20.7-13.81,31.55C351,183.17,349.06,202.66,371.71,202.78Z"/><path class="cls-17" d="M293.08,192.34s-7.18-20.94-10.14-24.42-27.61-27.15-32.54-28.13-7.88,5.91-3.94,14.79a33.26,33.26,0,0,0,11.66,13.59s3.13,11.05,10,13c0,0,2,18.73,4.93,19.72S289.41,201.52,293.08,192.34Z"/><path class="cls-6" d="M254,387.65s12,10,43,10,46-10.71,46-10.71l1.5-55.79s-8.82,11.91-34.66,12.2S262,344.81,257,332.23Z"/><path class="cls-10" d="M258,331.65c0,6.62,19,12,42.5,12s42.5-5.38,42.5-12"/><ellipse class="cls-18" cx="302.53" cy="399.65" rx="196" ry="34.5"/><rect class="cls-19" x="470.05" y="225.36" width="99.44" height="16.32"/><circle class="cls-20" cx="474.78" cy="217.43" r="24.25"/><circle class="cls-21" cx="527.26" cy="196.67" r="45.01"/><circle class="cls-22" cx="575.1" cy="211.25" r="30.43"/><rect class="cls-19" x="117.74" y="307.98" width="57.1" height="9.37"/><circle class="cls-23" cx="120.46" cy="303.43" r="13.92"/><circle class="cls-24" cx="150.59" cy="291.51" r="25.84"/><circle class="cls-25" cx="178.06" cy="299.88" r="17.47"/><rect class="cls-19" x="38.71" y="114.74" width="154.83" height="25.4"/><circle class="cls-26" cx="37.75" cy="102.39" r="37.75"/><circle class="cls-27" cx="119.46" cy="70.07" r="70.07"/><circle class="cls-28" cx="193.95" cy="92.76" r="47.38"/><path class="cls-29" d="M355.53,213.15s-9-5-28-2-31.1,10.06-42,9.53l-11-.53s12-1,15-1,14.32-4.11,17-5C309.53,213.15,347.53,204.15,355.53,213.15Z"/><path class="cls-14" d="M289.84,247.26c2.28-7.16,9.86-18.74,15.78-23.67s7.89-7.88,7.89-7.88-3.95-22.68-2-35.5,10.85-23.66,19.72-23.66,8.88,3,8.88,5.91-2,16.76-2,21.69-3,32.23,2,39.78,6.9,29.24-2,47-20.71,21.69-34.51,19.72S282.94,269,289.84,247.26Z"/><path class="cls-30" d="M330.53,177.15c-2,0-5-2-5-7v-5.47s7-1.53,9-1.53h4.15S338.53,177.15,330.53,177.15Z"/></g></g></svg>