<svg width="150" height="150" fill="none" xmlns="http://www.w3.org/2000/svg"><g clip-path="url(#a)"><path d="M113.711 76.554 98.865 65.526c-.869-.645-.412-2.025.67-2.025h13.573c.57 0 1.05.428 1.116.995l1.272 11.028c.113.977-.996 1.617-1.785 1.03Z" fill="#CBDDFF"/><path d="M41.652 31.147A4.147 4.147 0 0 1 45.8 27h73.224a4.147 4.147 0 0 1 4.147 4.147v31.075a4.147 4.147 0 0 1-4.147 4.147H45.799a4.147 4.147 0 0 1-4.147-4.147V31.147Z" fill="#CBDDFF"/><path fill-rule="evenodd" clip-rule="evenodd" d="M70.594 44.274H49.288v-1.307h21.306v1.307Zm4.632 7.411H49.29v-1.308h25.937v1.308Z" fill="#181B34"/><path d="M86.98 36.329c0-1.145.928-2.073 2.074-2.073h24.881c1.145 0 2.073.928 2.073 2.073V58.1a2.073 2.073 0 0 1-2.073 2.073H89.054A2.073 2.073 0 0 1 86.98 58.1V36.329Z" fill="#fff"/><path d="M109.789 43.069a2.592 2.592 0 1 1-5.184-.001 2.592 2.592 0 0 1 5.184 0Zm1.118 12.955h-19.91a1.036 1.036 0 0 1-.86-1.614l6.368-9.491a1.037 1.037 0 0 1 1.71-.018l4.935 7.041a1.037 1.037 0 0 0 1.555.164l2.43-2.259a1.036 1.036 0 0 1 1.555.165l3.066 4.38a1.036 1.036 0 0 1-.849 1.632Z" fill="#CBDDFF"/><path d="M26.83 78.853a4.147 4.147 0 0 1 4.147-4.146h48.985a4.147 4.147 0 0 1 4.147 4.146v40A4.147 4.147 0 0 1 79.962 123H30.977a4.147 4.147 0 0 1-4.147-4.147v-40Z" fill="#6161FF"/><path d="M77.37 109.522a7.861 7.861 0 0 1-7.862 7.861 7.862 7.862 0 1 1 7.862-7.861Z" fill="#FC0"/><path fill-rule="evenodd" clip-rule="evenodd" d="M65.015 108.96c.31 0 .561.252.561.562a3.931 3.931 0 1 0 7.862 0 .562.562 0 0 1 1.123 0 5.054 5.054 0 0 1-10.108 0c0-.31.251-.562.562-.562Z" fill="#181B34"/><path fill-rule="evenodd" clip-rule="evenodd" d="M71.025 88.62H37.332v-.87h33.693v.87Zm-8.985 6.74H37.332v-.872H62.04v.871Zm-9.5 6.737H37.333v-.871h15.209v.871Z" fill="#fff"/></g><defs><clipPath id="a"><path fill="#fff" d="M0 0h150v150H0z"/></clipPath></defs></svg>